<?xml version="1.0" encoding="UTF-8"?>
<svg width="8px" height="8px" viewBox="0 0 8 8" version="1.1" xmlns="http://www.w3.org/2000/svg" xmlns:xlink="http://www.w3.org/1999/xlink">
    <!-- Generator: Sketch 50.2 (55047) - http://www.bohemiancoding.com/sketch -->
    <title>Slice 1</title>
    <desc>Created with Sketch.</desc>
    <defs>
        <linearGradient x1="50%" y1="0%" x2="50%" y2="100%" id="linearGradient-1">
            <stop stop-color="#FAD961" offset="0%"></stop>
            <stop stop-color="#F76B1C" offset="100%"></stop>
        </linearGradient>
    </defs>
    <g id="Page-1" stroke="none" stroke-width="1" fill="none" fill-rule="evenodd">
        <g id="clock" fill="url(#linearGradient-1)" fill-rule="nonzero">
            <path d="M4,0 C1.8,0 0,1.8 0,4 C0,6.2 1.8,8 4,8 C6.2,8 8,6.2 8,4 C8,1.8 6.2,0 4,0 Z M4,1 C5.66,1 7,2.34 7,4 C7,5.66 5.66,7 4,7 C2.34,7 1,5.66 1,4 C1,2.34 2.34,1 4,1 Z M3.5,2 L3.5,4.22 L3.66,4.35 L4.16,4.85 L4.5,5.23 L5.22,4.51 L4.84,4.17 L4.5,3.83 L4.5,2.02 L3.5,2.02 L3.5,2 Z" id="Shape"></path>
        </g>
    </g>
</svg>