<?xml version="1.0" encoding="UTF-8"?>
<svg width="8px" height="8px" viewBox="0 0 8 8" version="1.1" xmlns="http://www.w3.org/2000/svg" xmlns:xlink="http://www.w3.org/1999/xlink">
    <!-- Generator: Sketch 50.2 (55047) - http://www.bohemiancoding.com/sketch -->
    <title>Slice 1</title>
    <desc>Created with Sketch.</desc>
    <defs>
        <linearGradient x1="50%" y1="0%" x2="50%" y2="100%" id="linearGradient-1">
            <stop stop-color="#FAD961" offset="0%"></stop>
            <stop stop-color="#F76B1C" offset="100%"></stop>
        </linearGradient>
    </defs>
    <g id="Page-1" stroke="none" stroke-width="1" fill="none" fill-rule="evenodd">
        <g id="person" fill="url(#linearGradient-1)" fill-rule="nonzero">
            <path d="M4,0 C2.625,0 1.5,1.12 1.5,2.5 C1.5,3.88 2.625,5 4,5 C5.375,5 6.5,3.88 6.5,2.5 C6.5,1.12 5.375,0 4,0 Z M1.91,5 C0.85,5.05 0,5.92 0,7 L0,8 L8,8 L8,7 C8,5.92 7.16,5.05 6.09,5 C5.55,5.61 4.81,6 4,6 C3.19,6 2.45,5.61 1.91,5 Z" id="Shape"></path>
        </g>
    </g>
</svg>